<?xml version="1.0" encoding="utf-8"?>
<!-- Generator: Adobe Illustrator 16.0.0, SVG Export Plug-In . SVG Version: 6.00 Build 0)  -->
<!DOCTYPE svg PUBLIC "-//W3C//DTD SVG 1.1//EN" "http://www.w3.org/Graphics/SVG/1.1/DTD/svg11.dtd">
<svg version="1.1" id="Capa_1" xmlns="http://www.w3.org/2000/svg" xmlns:xlink="http://www.w3.org/1999/xlink" x="0px" y="0px"
	 width="143.339px" height="33.75px" viewBox="0 0 143.339 33.75" enable-background="new 0 0 143.339 33.75" xml:space="preserve">
<g>
	<path fill="#FFFFFF" d="M134.676,33.337c-3.487,0.699-6.747,0.089-9.778-1.829c-3.074-1.943-5.056-4.653-5.947-8.125
		c-0.858-3.471-0.341-6.703,1.549-9.695c1.909-3.021,4.613-4.906,8.116-5.655c3.508-0.765,6.813-0.166,9.915,1.797
		c1.528,0.968,2.842,2.218,3.937,3.751l-3.504,2.282c-0.75-1.05-1.639-1.899-2.664-2.547c-2.105-1.332-4.334-1.736-6.685-1.216
		c-2.376,0.525-4.207,1.809-5.494,3.846c-1.288,2.038-1.631,4.231-1.034,6.581c0.604,2.374,1.937,4.214,4,5.519
		c2.062,1.305,4.262,1.712,6.596,1.218c2.335-0.494,4.159-1.75,5.475-3.768l3.619,2.292
		C140.857,30.763,138.156,32.612,134.676,33.337z"/>
	<path fill="#FFFFFF" d="M107.678,13.319c-2.105-1.333-4.339-1.731-6.699-1.198c-2.375,0.526-4.201,1.8-5.478,3.823
		c-0.466,0.737-0.826,1.619-1.082,2.645l17.204,0.009C111.014,16.357,109.698,14.597,107.678,13.319z M106.049,33.335
		c-3.487,0.7-6.745,0.09-9.777-1.828c-3.074-1.945-5.057-4.655-5.948-8.126c-0.855-3.467-0.331-6.705,1.568-9.712
		c1.907-3.021,4.608-4.899,8.098-5.636c3.507-0.766,6.806-0.17,9.893,1.784c2.202,1.393,3.867,3.269,4.991,5.626
		c1.132,2.344,1.514,4.786,1.147,7.327l-21.505-0.004c0.607,2.241,1.921,3.999,3.942,5.278c2.093,1.323,4.298,1.734,6.62,1.233
		c2.341-0.507,4.16-1.768,5.451-3.782l3.622,2.292C112.23,30.761,109.53,32.61,106.049,33.335z"/>
	<polygon fill="#FFFFFF" points="84.464,0 84.464,8.279 88.723,8.279 88.723,12.419 84.464,12.419 84.464,33.118 80.2,33.118 
		80.2,12.419 75.965,12.419 75.965,8.279 80.2,8.279 80.2,0 	"/>
	<path fill="#FFFFFF" d="M69.488,33.118v-14.5c0-1.83-0.673-3.391-2.02-4.686c-1.33-1.295-2.925-1.943-4.787-1.943
		c-1.879,0-3.483,0.648-4.812,1.943c-1.331,1.295-1.995,2.856-1.995,4.686v14.5H51.61V18.626c0-2.849,1.112-5.357,3.338-7.525
		c2.227-2.168,4.801-3.253,7.726-3.253c2.907,0,5.473,1.085,7.698,3.253c2.227,2.168,3.34,4.676,3.34,7.525v14.492H69.488z"/>
	<path fill="#FFFFFF" d="M39.266,8.472c1.904,0.609,3.62,1.662,5.148,3.16c2.575,2.506,3.863,5.522,3.863,9.048
		c0,3.525-1.288,6.541-3.863,9.047c-2.559,2.491-5.665,3.735-9.319,3.735c-3.639,0-6.747-1.244-9.321-3.735
		c-2.575-2.506-3.862-5.521-3.862-9.047c0-3.525,1.287-6.542,3.862-9.048c1.544-1.502,3.27-2.557,5.178-3.164v4.52
		c-0.758,0.403-1.468,0.927-2.131,1.573c-1.763,1.7-2.643,3.738-2.643,6.116c0,2.379,0.88,4.426,2.643,6.142
		c1.762,1.7,3.856,2.547,6.284,2.547c2.426,0,4.529-0.847,6.308-2.547c1.762-1.716,2.643-3.763,2.643-6.142
		c0-2.377-0.881-4.416-2.643-6.116c-0.668-0.649-1.384-1.177-2.149-1.581L39.266,8.472z"/>
	<rect x="33" y="5.175" fill="#FFFFFF" width="4.223" height="13.799"/>
	<path fill="#FFFFFF" d="M15.944,13.94c-1.329,1.295-1.993,2.857-1.993,4.686v14.492H9.686V18.626c0-2.849,1.114-5.357,3.339-7.525
		c2.227-2.168,4.803-3.253,7.725-3.253v4.151C18.874,11.999,17.271,12.647,15.944,13.94z"/>
	<rect y="8.279" fill="#FFFFFF" width="4.222" height="24.839"/>
	<rect fill="#FFFFFF" width="4.222" height="4.139"/>
</g>
</svg>
